<svg xmlns="http://www.w3.org/2000/svg" xmlns:xlink="http://www.w3.org/1999/xlink" version="1.1" x="0px" y="0px" viewBox="0 0 144.083 144" enable-background="new 0 0 144.083 144" xml:space="preserve"><path fill="#fff" d="M88.288,27.722H55.793c-10.037,0-18.174,8.137-18.174,18.175V78.39c0,10.038,8.137,18.175,18.174,18.175h5.562  l10.687,19.714l10.686-19.714h5.561c10.039,0,18.176-8.137,18.176-18.175V45.896C106.463,35.858,98.327,27.722,88.288,27.722z   M94.847,70.563c-1.826,1.815-4.249,2.814-6.822,2.814c-0.011,0-0.021,0-0.032,0l-7.505-0.011c-2.82,3.097-6.872,5.052-11.389,5.052  c-8.516,0-15.419-6.904-15.419-15.42V50.012h30.838v3.995l3.53,0.008c5.339,0.016,9.669,4.371,9.655,9.709  C97.696,66.312,96.681,68.739,94.847,70.563z"></path><path fill="#fff" d="M88.033,60.015l-3.515-0.008v2.992c0,1.521-0.229,2.986-0.639,4.373l4.127,0.006c1.026-0.024,1.913-0.377,2.61-1.07  c0.698-0.693,1.084-1.617,1.087-2.601C91.709,61.677,90.062,60.021,88.033,60.015z"></path></svg>
