<svg xmlns="http://www.w3.org/2000/svg" xmlns:xlink="http://www.w3.org/1999/xlink" version="1.1" x="0px" y="0px" viewBox="0 0 100 100" enable-background="new 0 0 100 100" xml:space="preserve"><path fill="#fff" d="M92.352,38.811c-0.979-4.933-5.855-8.26-11.522-8.26c-0.559,0-1.128,0.042-1.698,0.114V26.33H19.696v7.136  c0,16.413,13.302,29.719,29.717,29.719c9.949,0,18.739-4.916,24.134-12.428c1.689,0.783,3.615,1.228,5.649,1.228  c0.947,0,1.917-0.098,2.892-0.289C88.902,50.341,93.497,44.57,92.352,38.811z M84.459,42.327c-0.848,1.06-2.233,1.848-3.803,2.158  c-0.487,0.097-0.977,0.144-1.46,0.144c-0.762,0-1.49-0.132-2.127-0.357c0.755-1.919,1.304-3.939,1.64-6.034  c0.223-0.063,0.436-0.144,0.668-0.187c0.484-0.097,0.977-0.145,1.457-0.145c2.155,0,4.046,1.027,4.307,2.34  C85.311,41.094,84.785,41.913,84.459,42.327z"></path><path fill="#fff" d="M95.977,65.334H4.023c0,2.442,9.365,4.569,23.229,5.705c0.239,1.469,2.674,2.631,5.676,2.631h34.142  c3.002,0,5.435-1.162,5.671-2.631C86.612,69.903,95.977,67.776,95.977,65.334z"></path></svg>
