<svg xmlns="http://www.w3.org/2000/svg" xmlns:xlink="http://www.w3.org/1999/xlink" version="1.1" x="0px" y="0px" viewBox="0 0 100 100" style="enable-background:new 0 0 100 100;" xml:space="preserve"><g><path fill="#fff" d="M80.8,76.3L64.2,59.6c3.9-4.5,6.1-10.5,6.1-16.8c0-14.4-11.7-26.1-26.1-26.1S18,28.4,18,42.8S29.7,69,44.1,69   c5.1,0,9.8-1.5,13.8-4l17.1,17.1c0.8,0.8,1.9,1.2,2.9,1.2c1,0,2.1-0.4,2.9-1.2C82.4,80.4,82.4,77.8,80.8,76.3z M44.2,60.7   c-9.9,0-17.9-8-17.9-17.9S34.3,25,44.2,25s17.9,8,17.9,17.9S54,60.7,44.2,60.7z"></path></g></svg>
